<svg role="img" viewBox="0 0 1000 1000" xmlns="http://www.w3.org/2000/svg" id="Primeng--Streamline-Simple-Icons" height="1000" width="1000">
  <desc>
    Primeng Streamline Icon: https://streamlinehq.com
  </desc>
  <title>PrimeNG</title>
  <path d="M500 0 32.666666666666664 166l71.29166666666667 615.5L500 1000l396.0833333333333 -218.49999999999997 71.25 -615.5ZM348.08333333333326 175.49999999999997h69.75L382.91666666666663 255.16666666666663l-104.58333333333331 -9.999999999999998Zm84.66666666666666 0h54.791666666666664v283.8333333333333h-29.874999999999996L243.45833333333331 379.66666666666663l-29.874999999999996 -124.49999999999999 179.49999999999997 14.583333333333332Zm74.75 0h54.75l39.70833333333333 94.20833333333333 184.45833333333331 -14.541666666666664 -29.874999999999996 124.49999999999999 -214.16666666666663 79.66666666666666h-34.875Zm69.70833333333333 0h69.75L716.6666666666666 245.20833333333331l-104.58333333333331 9.958333333333332zM248.45833333333331 399.5833333333333l54.791666666666664 19.916666666666664 54.791666666666664 54.791666666666664 44.833333333333336 -9.999999999999998 -34.875 49.83333333333333v154.33333333333334l-119.58333333333333 -99.58333333333333zm498.125 0v169.29166666666666l-119.58333333333333 99.58333333333333v-154.33333333333334l-34.875 -49.791666666666664 44.87499999999999 9.958333333333332 54.75 -54.791666666666664zm-324.41666666666663 64 24.833333333333332 14.999999999999998h99.33333333333333l24.874999999999996 -14.999999999999998 39.70833333333333 59.875v224.49999999999997l-29.791666666666664 44.916666666666664 -34.791666666666664 34.916666666666664h-99.33333333333333l-34.75 -34.916666666666664 -29.791666666666664 -44.916666666666664v-224.49999999999997zm-118.91666666666666 170 64.75 54.791666666666664v74.70833333333333L303.24999999999994 698.3333333333334Zm388.49999999999994 0v64.75l-64.70833333333333 64.75V688.3333333333333z" fill="#000000" stroke-width="41.6667"></path>
</svg>